<?xml version="1.0" encoding="UTF-8" standalone="no"?>
<!DOCTYPE svg PUBLIC "-//W3C//DTD SVG 1.1//EN" "http://www.w3.org/Graphics/SVG/1.1/DTD/svg11.dtd">
<svg width="100%" height="100%" viewBox="0 0 1024 1024" version="1.1" xmlns="http://www.w3.org/2000/svg" xmlns:xlink="http://www.w3.org/1999/xlink" xml:space="preserve" xmlns:serif="http://www.serif.com/" style="fill-rule:evenodd;clip-rule:evenodd;stroke-linejoin:round;stroke-miterlimit:2;">
    <!-- Gradients -->
    <defs>
        <linearGradient id="OuterBox" x1="0" y1="0" x2="1" y2="0" gradientUnits="userSpaceOnUse" gradientTransform="matrix(740.119,0,0,741.809,79.676,528.053)"><stop offset="0" style="stop-color:rgb(90,90,90);stop-opacity:1"/><stop offset="0.5" style="stop-color:rgb(100,100,100);stop-opacity:1"/><stop offset="1" style="stop-color:rgb(50,50,50);stop-opacity:1"/></linearGradient>
        <radialGradient id="VolumeCircle" cx="0" cy="0" r="1" gradientUnits="userSpaceOnUse" gradientTransform="matrix(807.71,0,0,760.396,111.782,506.931)"><stop offset="0" style="stop-color:rgb(50,50,50);stop-opacity:1"/><stop offset="1" style="stop-color:rgb(80,80,80);stop-opacity:1"/></radialGradient>
    </defs>

    <g transform="matrix(1.51376,0,0,1.51376,-265.602,-105.094)">
        <!-- Circle Background -->
        <g transform="matrix(0.77772,1.19358e-20,1.2138e-20,0.822222,112.669,-9.15291)">
            <ellipse cx="515.636" cy="506.931" rx="403.855" ry="380.198" style="fill:url(#VolumeCircle);"/>
        </g>
        <!-- Donut Outline -->
        <g transform="matrix(1.41277,0,0,1.57345,-100.256,-119.132)">
            <path d="M433.374,155.451C542.956,155.451 631.922,235.333 631.922,333.725C631.922,432.118 542.956,512 433.374,512C323.793,512 234.826,432.118 234.826,333.725C234.826,235.333 323.793,155.451 433.374,155.451ZM433.374,169.713C534.189,169.713 616.038,243.204 616.038,333.725C616.038,424.246 534.189,497.738 433.374,497.738C332.559,497.738 250.71,424.246 250.71,333.725C250.71,243.204 332.559,169.713 433.374,169.713Z" style="fill:white;"/>
        </g>
        <!-- Volume -->
        <g id="path2842" transform="matrix(0.863317,0,0,0.767543,294.438,-6.81641)">
            <path d="M363.855,318.105L345.879,335.688C345.879,335.688 362.406,351.63 379.42,385.875C396.433,420.12 413.465,472.209 413.465,542.992C413.465,613.776 396.4,664.537 379.42,697.584C362.441,730.635 346.131,745.5 346.131,745.5L364.508,761.895C364.508,761.895 390.039,738.692 407.918,703.889C425.801,669.187 443.482,615.924 443.482,543.293C443.482,470.293 425.768,416.043 407.924,380.123C390.079,344.206 363.861,318.408 363.861,318.408L363.855,318.105ZM311.145,368.178L311.141,368.383L291.66,385.17C291.66,385.17 304.59,397.329 317.889,423.25C331.187,449.171 344.621,488.573 344.621,542.285C344.621,595.997 331.152,634.301 317.889,659.303C304.625,684.304 291.912,695.365 291.912,695.365L310.037,712.404C310.037,712.404 331.93,692.634 346.133,665.859C360.335,639.086 374.379,598.287 374.379,542.289C374.379,486.288 360.3,444.559 346.133,416.951C331.966,389.337 311.144,368.178 311.144,368.178L311.145,368.178ZM211.754,385.021C209.391,384.827 206.046,386.188 201.348,389.404C182.553,402.268 114.273,476.752 114.273,476.752C113.678,476.752 113.209,476.964 112.631,477.027L60,477.027L60,607.912L114.277,607.912C114.277,607.912 181.344,682.671 201.352,695.535C221.359,708.399 217.232,688.411 217.232,679.654L217.232,405.012C217.232,398.443 218.845,385.608 211.756,385.023L211.754,385.021ZM251.648,415.836L231.379,434.797C231.379,434.797 279.043,468.34 279.043,541.477C279.043,614.61 231.631,645.887 231.631,645.887L251.395,667.072C251.395,667.072 308.801,620.66 308.801,541.484C308.801,462.303 251.646,415.848 251.646,415.848L251.648,415.836Z" style="fill:white;fill-rule:nonzero;"/>
        </g>
    </g>
</svg>
